<?xml version="1.0" encoding="UTF-8" standalone="no" ?>
<!DOCTYPE svg PUBLIC "-//W3C//DTD SVG 1.1//EN" "http://www.w3.org/Graphics/SVG/1.1/DTD/svg11.dtd">
<svg xmlns="http://www.w3.org/2000/svg" xmlns:xlink="http://www.w3.org/1999/xlink" version="1.1" width="1080" height="1080" viewBox="0 0 1080 1080" xml:space="preserve">
<desc>Created with Fabric.js 5.2.4</desc>
<defs>
</defs>
<rect x="0" y="0" width="100%" height="100%" fill="transparent"></rect>
<g transform="matrix(1 0 0 1 540 540)" id="77156b2f-09a9-494a-8f5d-b237faa9807a"  >
<rect style="stroke: none; stroke-width: 1; stroke-dasharray: none; stroke-linecap: butt; stroke-dashoffset: 0; stroke-linejoin: miter; stroke-miterlimit: 4; fill: rgb(45,189,95); fill-rule: nonzero; opacity: 1;" vector-effect="non-scaling-stroke"  x="-540" y="-540" rx="0" ry="0" width="1080" height="1080" />
</g>
<g transform="matrix(1 0 0 1 540 540)" id="3ca32c4c-4a12-4059-8145-659b189aa974"  >
</g>
<g transform="matrix(1 0 0 1 540 540)"  >
<g style="" vector-effect="non-scaling-stroke"   >
		<g transform="matrix(1 0 0 1 -1.29 -82.55)"  >
<path style="stroke: none; stroke-width: 1; stroke-dasharray: none; stroke-linecap: butt; stroke-dashoffset: 0; stroke-linejoin: miter; stroke-miterlimit: 4; fill: rgb(0,0,0); fill-rule: nonzero; opacity: 1;" vector-effect="non-scaling-stroke"  transform=" translate(-513.51, -420.34)" d="M 512 580.210815 C 491.449402 580.650574 471.442963 580.159729 452.312744 573.306274 C 401.058197 554.944214 371.696259 518.303223 362.610748 464.946228 C 360.644012 453.395935 360.404633 441.769073 360.975311 430.106934 C 361.269623 424.093109 362.077728 423.627686 367.930573 424.157013 C 373.229309 424.636261 378.567291 424.784485 383.89093 424.85614 C 389.142792 424.92688 389.808228 423.773193 387.212677 418.905182 C 382.559967 410.178833 379.020355 401.029694 376.8927 391.398468 C 373.455597 375.839722 372.603271 360.126526 374.65509 344.273315 C 375.014618 341.495483 376.33139 340.654541 378.912231 340.618011 C 403.618591 340.268555 427.288879 344.426392 449.200897 356.472137 C 454.950409 359.632812 455.18866 359.320312 455.76593 352.775787 C 458.280792 324.266327 470.331207 300.16507 489.864319 279.547577 C 496.076416 272.990692 503.313995 267.636444 510.159119 261.817169 C 512.45813 259.862732 514.265625 259.873749 516.720642 261.724854 C 544.150574 282.407043 563.703491 308.215973 569.809875 342.820801 C 570.501709 346.741089 570.952454 350.727997 571.162415 354.702637 C 571.383057 358.879486 573.14801 359.037689 576.27771 357.30069 C 590.851868 349.212189 606.399048 344.028259 622.954956 341.993195 C 631.220703 340.977142 639.518921 340.487762 647.862305 340.607452 C 651.045227 340.653137 652.119324 341.930603 652.490784 345.004425 C 655.629456 370.976959 652.083923 395.768646 639.874634 419.114624 C 639.055054 420.681702 637.708984 422.138336 638.353516 424.5354 C 645.541992 424.5354 652.817444 424.909637 660.027954 424.388092 C 664.034424 424.098267 665.429688 425.230469 665.76001 429.012115 C 667.357239 447.299103 665.50824 465.239227 660.41748 482.834991 C 648.750122 523.162476 623.980713 552.270142 585.434875 569.159607 C 569.439392 576.168396 552.451782 579.547302 534.991089 580.166504 C 527.50293 580.432068 519.997559 580.211548 512 580.210815 M 455.124939 536.332031 C 468.27887 541.713318 481.492157 546.803833 497.010681 545.502136 C 489.68631 517.400574 475.468536 495.193146 452.056641 479.453094 C 435.239716 468.146881 416.589417 462.074768 394.932037 461.32019 C 403.806366 496.188477 422.862701 521.052307 455.124939 536.332031 M 617.674683 496.203949 C 622.655273 488.817596 626.02887 480.658966 628.877258 472.291382 C 632.378113 462.007141 632.453369 459.568268 620.664307 462.269043 C 620.342407 462.342804 619.998169 462.313812 619.670776 462.3703 C 574.790588 470.114075 545.887878 496.141785 531.944763 539.184265 C 530.050293 545.032532 530.988525 546.355103 537.00885 545.697021 C 571.359436 541.942383 598.268921 525.824097 617.674683 496.203949 M 508.406219 416.191711 C 510.204407 419.430542 510.119446 423.657959 513.357727 426.141022 C 515.699646 425.388214 515.926819 423.339539 516.535217 421.722687 C 519.295166 414.388336 522.551025 407.285492 526.049377 400.280273 C 530.288025 391.792755 534.904175 383.37796 536.559814 373.932861 C 541.091675 348.079926 533.261475 325.665558 517.060608 305.643188 C 514.223145 302.136444 512.167725 302.745911 509.610687 305.853455 C 503.846191 312.858978 499.165253 320.524261 495.757263 328.88736 C 487.496429 349.159485 485.890167 369.434967 496.053955 389.704742 C 500.305603 398.183868 504.121704 406.881409 508.406219 416.191711 M 430.736328 423.765045 C 437.244934 429.251923 444.233032 433.971222 451.826172 437.890717 C 463.21579 443.769989 474.096436 450.503845 484.108337 458.569672 C 484.932098 459.233337 485.76178 460.311066 487.560028 459.329742 C 480.457245 435.563019 471.117279 413.061768 451.945343 396.036499 C 439.939026 385.374542 426.196106 377.789276 410.689117 373.583832 C 404.422821 371.88443 402.838135 373.515564 404.133453 379.413696 C 407.97995 396.928192 417.085663 411.301697 430.736328 423.765045 M 612.937073 374.392029 C 591.247498 381.891663 572.99292 394.062897 560.054871 413.407867 C 550.779785 427.276062 544.395142 442.376648 540.211182 458.499023 C 541.906677 459.009308 542.589172 458.517731 543.247925 458.002289 C 552.329468 450.89566 562.086609 444.865051 572.355042 439.63562 C 597.592346 426.782867 615.830444 408.047424 622.7677 379.758148 C 624.233765 373.779694 623.154785 372.406982 617.109741 373.340424 C 615.964294 373.517303 614.848938 373.888428 612.937073 374.392029 z" stroke-linecap="round" />
</g>
		<g transform="matrix(1 0 0 1 59.56 167.18)"  >
<path style="stroke: none; stroke-width: 1; stroke-dasharray: none; stroke-linecap: butt; stroke-dashoffset: 0; stroke-linejoin: miter; stroke-miterlimit: 4; fill: rgb(0,0,0); fill-rule: nonzero; opacity: 1;" vector-effect="non-scaling-stroke"  transform=" translate(-574.36, -670.06)" d="M 563.937744 717.342773 C 543.704529 714.048157 530.88324 700.249146 528.729675 680.292542 C 527.828491 671.940918 527.861816 663.726074 529.762573 655.512756 C 534.220947 636.247803 545.995056 625.126709 565.646606 622.517029 C 581.766602 620.376404 596.841675 622.35437 608.960327 634.914734 C 616.359131 642.583191 618.853271 652.170959 620.057251 662.120178 C 621.180908 671.406128 620.504272 680.769226 617.577332 689.766113 C 611.977722 706.977844 597.360413 717.53241 578.279968 718.251343 C 573.627563 718.426636 568.956665 718.517212 563.937744 717.342773 M 555.93158 692.492188 C 566.43158 706.013245 588.855835 703.398315 594.880981 687.540771 C 599.326477 675.840698 599.225159 663.625916 594.579956 651.883057 C 590.928467 642.652222 583.147278 639.369751 573.733459 639.392822 C 564.327087 639.415894 556.562256 644.149414 553.879456 652.556458 C 549.671692 665.742126 549.097046 679.019104 555.93158 692.492188 z" stroke-linecap="round" />
</g>
		<g transform="matrix(1 0 0 1 -121.24 193.94)"  >
<path style="stroke: none; stroke-width: 1; stroke-dasharray: none; stroke-linecap: butt; stroke-dashoffset: 0; stroke-linejoin: miter; stroke-miterlimit: 4; fill: rgb(0,0,0); fill-rule: nonzero; opacity: 1;" vector-effect="non-scaling-stroke"  transform=" translate(-393.56, -696.82)" d="M 408.118469 709.830811 C 400.143005 715.627319 391.623383 718.737244 381.507019 716.554016 C 368.509674 713.749146 359.828857 704.794006 357.590149 691.588806 C 356.371338 684.399353 356.865082 677.418091 358.496918 670.321289 C 363.677765 647.789551 391.406616 641.964905 406.228302 655.237549 C 406.806091 655.754944 407.515198 656.125671 408.768921 656.97522 C 407.839111 650.054138 411.556122 649.573303 416.551361 649.671814 C 430.066254 649.938416 430.213776 649.77124 430.078308 663.244568 C 429.914246 679.559143 430.825531 695.885254 429.400116 712.189026 C 427.533173 733.542908 418.598206 742.877869 397.164612 745.028687 C 386.796265 746.069153 376.555481 745.122803 366.614075 741.589233 C 363.541229 740.497009 362.09906 738.96521 363.178284 735.69812 C 364.463257 731.808167 364.058044 727.451294 366.514191 723.315063 C 373.222656 726.040527 379.982391 728.278015 387.199188 728.48114 C 392.255646 728.623474 397.204132 728.243347 401.585175 725.360168 C 407.125244 721.714111 408.175201 716.083923 408.118469 709.830811 M 393.85968 700.373718 C 402.887329 700.425842 408.009155 695.962646 408.720459 687.207275 C 408.948303 684.40271 408.920013 681.547058 408.687042 678.741577 C 408.223236 673.156311 405.612823 668.642151 400.175598 666.939514 C 394.433716 665.141357 388.394226 665.234253 383.925201 670.032776 C 378.534637 675.820679 378.408203 682.91394 380.319855 690.171448 C 382.038452 696.695984 386.713074 699.552368 393.85968 700.373718 z" stroke-linecap="round" />
</g>
		<g transform="matrix(1 0 0 1 -208.24 167.04)"  >
<path style="stroke: none; stroke-width: 1; stroke-dasharray: none; stroke-linecap: butt; stroke-dashoffset: 0; stroke-linejoin: miter; stroke-miterlimit: 4; fill: rgb(0,0,0); fill-rule: nonzero; opacity: 1;" vector-effect="non-scaling-stroke"  transform=" translate(-306.56, -669.92)" d="M 320.585327 630.489136 C 332.330658 658.904602 343.927429 686.966492 356.07901 716.370911 C 347.612549 716.370911 340.395721 716.502319 333.188934 716.291016 C 331.019897 716.227417 330.743073 713.804626 330.102661 712.151062 C 325.163208 699.397278 325.176086 699.392822 311.33136 699.375 C 304.507965 699.366211 297.682129 699.458435 290.862274 699.297913 C 287.810944 699.226196 285.425751 699.957214 284.944672 703.208618 C 283.173981 715.17572 275.803925 718.353638 264.889191 716.414062 C 262.473541 715.984863 259.906342 716.756775 257.539032 715.798828 C 256.402557 714.185303 257.514832 712.862854 258.049469 711.569092 C 269.736755 683.286987 281.479614 655.027893 293.143707 626.736267 C 294.014191 624.624817 295.164825 623.509705 297.526703 623.494019 C 301.682434 623.466492 305.872284 623.538391 309.983429 623.038696 C 315.731659 622.339966 319.291382 624.320557 320.585327 630.489136 M 296.872314 671.268921 C 295.891815 674.865967 293.612122 678.139526 293.943604 682.243164 C 301.840546 682.243164 309.502319 682.243164 317.973114 682.243164 C 313.894806 670.194702 310.052155 658.842407 305.924896 646.649353 C 304.889526 649.010925 304.207794 650.337402 303.714355 651.730652 C 301.497894 657.988403 299.33493 664.265137 296.872314 671.268921 z" stroke-linecap="round" />
</g>
		<g transform="matrix(1 0 0 1 148.74 179.55)"  >
<path style="stroke: none; stroke-width: 1; stroke-dasharray: none; stroke-linecap: butt; stroke-dashoffset: 0; stroke-linejoin: miter; stroke-miterlimit: 4; fill: rgb(0,0,0); fill-rule: nonzero; opacity: 1;" vector-effect="non-scaling-stroke"  transform=" translate(-663.54, -682.44)" d="M 664.210693 649.769775 C 670.351746 648.159058 676.182983 647.990112 681.854492 649.568054 C 690.331482 651.926636 694.845825 658.143188 696.03418 666.524902 C 698.216553 681.918579 696.760681 697.428894 696.936218 712.888184 C 696.964417 715.372253 695.619385 716.404968 693.135437 716.345703 C 689.142578 716.250488 685.132629 716.123962 681.154175 716.383545 C 677.209778 716.640869 675.82428 715.034912 675.881592 711.19635 C 676.023193 701.709961 675.932739 692.219971 675.909546 682.731384 C 675.90387 680.402466 675.935486 678.060486 675.712036 675.747498 C 675.069458 669.094604 671.530579 665.284241 665.597778 664.663818 C 659.581909 664.034607 654.445923 667.319946 652.454651 673.183411 C 651.595337 675.713806 651.260864 678.338013 651.270935 681.038452 C 651.308716 691.192688 651.144104 701.348755 651.287659 711.500854 C 651.339966 715.202881 649.95636 716.588379 646.30304 716.382446 C 642.486328 716.167175 638.639221 716.165649 634.822144 716.375671 C 631.254028 716.57196 630.104492 714.844055 630.094116 711.623291 C 630.032166 692.480042 629.953369 673.336853 629.822937 654.19397 C 629.801514 651.048889 631.084778 649.606812 634.299011 649.742249 C 637.456482 649.875427 640.633118 649.939392 643.784119 649.748535 C 648.312378 649.474304 652.385376 649.554749 651.62146 657.163208 C 656.014832 653.790283 659.577881 651.176208 664.210693 649.769775 z" stroke-linecap="round" />
</g>
		<g transform="matrix(1 0 0 1 224.5 180.69)"  >
<path style="stroke: none; stroke-width: 1; stroke-dasharray: none; stroke-linecap: butt; stroke-dashoffset: 0; stroke-linejoin: miter; stroke-miterlimit: 4; fill: rgb(0,0,0); fill-rule: nonzero; opacity: 1;" vector-effect="non-scaling-stroke"  transform=" translate(-739.3, -683.58)" d="M 739.115967 648.690186 C 742.406494 648.832275 745.29657 648.62854 748.035034 649.178894 C 764.128784 652.413025 770.768738 661.546814 771.954346 677.487122 C 773.159424 693.688049 773.97522 690.81543 759.487427 691.136658 C 750.832031 691.328613 742.168579 691.136963 733.509338 691.196472 C 731.744202 691.208557 729.834045 690.74054 728.267456 692.039429 C 728.992554 697.990601 733.956238 701.968811 741.783752 702.675537 C 749.314209 703.35553 756.749817 702.966431 763.875 700.044678 C 765.069946 699.554688 766.267578 698.797607 768.227112 699.63855 C 769.189026 703.753174 768.242615 708.162537 767.994934 712.531982 C 767.906616 714.089783 766.297058 714.479919 765.064148 714.901062 C 751.360474 719.581543 737.627136 719.884827 724.096558 714.454712 C 711.981018 709.592529 705.036438 697.453247 706.161377 683.858032 C 706.394531 681.039673 706.631226 678.205444 707.14032 675.428772 C 710.048401 659.566467 722.310852 649.199951 739.115967 648.690186 M 727.475464 675.36853 C 728.281616 677.9552 730.486938 677.582214 732.413513 677.61261 C 737.382385 677.69104 742.352844 677.705322 747.322571 677.690125 C 752.870239 677.673157 754.103027 675.861206 752.130737 670.679871 C 751.213745 668.270874 749.648865 666.453247 747.320129 665.230225 C 738.763306 660.736145 730.338989 664.695374 727.475464 675.36853 z" stroke-linecap="round" />
</g>
		<g transform="matrix(1 0 0 1 -49.72 179.25)"  >
<path style="stroke: none; stroke-width: 1; stroke-dasharray: none; stroke-linecap: butt; stroke-dashoffset: 0; stroke-linejoin: miter; stroke-miterlimit: 4; fill: rgb(0,0,0); fill-rule: nonzero; opacity: 1;" vector-effect="non-scaling-stroke"  transform=" translate(-465.08, -682.14)" d="M 463.831787 650.977417 C 464.593994 653.051086 463.763763 655.067017 465.198425 656.593323 C 466.967621 657.20636 467.525208 655.622437 468.343414 654.750732 C 470.192169 652.781128 472.211426 651.095459 474.68512 649.979492 C 484.286835 645.647949 487.212952 647.500854 487.117035 657.863281 C 487.101593 659.529053 487.091766 661.19574 487.026581 662.859985 C 486.919403 665.596741 486.067719 666.959045 482.73642 666.677368 C 471.757965 665.749329 465.591461 671.247009 465.277313 682.203308 C 465.005219 691.693054 465.005157 701.197144 465.168793 710.690002 C 465.242401 714.960754 463.811981 716.986755 459.388702 716.377502 C 458.571198 716.264893 457.724854 716.361877 456.891815 716.361328 C 443.452606 716.353149 443.004425 716.343567 443.286957 703.05072 C 443.619812 687.389587 443.665649 671.745728 443.05957 656.101685 C 442.880096 651.468445 444.375336 649.190308 449.320953 649.739563 C 454.068573 650.266785 458.942871 648.865906 463.831787 650.977417 z" stroke-linecap="round" />
</g>
		<g transform="matrix(1 0 0 1 -10.37 180.06)"  >
<path style="stroke: none; stroke-width: 1; stroke-dasharray: none; stroke-linecap: butt; stroke-dashoffset: 0; stroke-linejoin: miter; stroke-miterlimit: 4; fill: rgb(0,0,0); fill-rule: nonzero; opacity: 1;" vector-effect="non-scaling-stroke"  transform=" translate(-504.43, -682.95)" d="M 493.807404 713.768127 C 493.712402 693.983826 493.788788 674.674927 493.561005 655.369568 C 493.508484 650.917786 495.072784 649.420166 499.370178 649.715881 C 503.345367 649.98938 507.35614 649.800476 511.349792 649.730652 C 514.047974 649.683533 515.301453 650.864868 515.296143 653.60199 C 515.25824 673.242554 515.268311 692.883057 515.238464 712.523621 C 515.23584 714.232849 515.047302 716.169006 512.810669 716.197021 C 506.999634 716.27002 501.185028 716.14978 495.37381 716.019653 C 494.459808 715.999207 494.087006 715.083069 493.807404 713.768127 z" stroke-linecap="round" />
</g>
		<g transform="matrix(1 0 0 1 -9.76 124.44)"  >
<path style="stroke: none; stroke-width: 1; stroke-dasharray: none; stroke-linecap: butt; stroke-dashoffset: 0; stroke-linejoin: miter; stroke-miterlimit: 4; fill: rgb(0,0,0); fill-rule: nonzero; opacity: 1;" vector-effect="non-scaling-stroke"  transform=" translate(-505.04, -627.33)" d="M 509.066223 639.519958 C 498.686432 641.26062 492.054901 637.026123 491.63855 628.747559 C 491.25647 621.150635 495.115448 616.179749 502.343811 614.957642 C 509.296783 613.782166 516.106995 617.601196 517.870667 623.664673 C 519.876282 630.559937 516.76825 636.383484 509.066223 639.519958 z" stroke-linecap="round" />
</g>
</g>
</g>
</svg>